<svg width="32" height="24" viewBox="0 0 32 24" fill="none" xmlns="http://www.w3.org/2000/svg">
<path d="M18 6C14.686 6 10 8.686 10 12C10 9.87827 10.8429 7.84344 12.3431 6.34315C13.8434 4.84285 15.8783 4 18 4V6Z" fill="black"/>
<path fill-rule="evenodd" clip-rule="evenodd" d="M28.666 2.00002H24.636C22.6704 0.691892 20.3611 -0.00410255 18 1.81927e-05C15.6389 -0.00386268 13.3297 0.692111 11.364 2.00002H3.334C1.494 2.00002 0 3.49202 0 5.33402V18.666C0 20.506 1.492 22 3.334 22H11.364C13.264 23.264 15.546 24 18 24C20.361 24.0038 22.6702 23.3078 24.636 22H28.666C30.506 22 32 20.508 32 18.666V5.33402C32 3.49402 30.508 2.00002 28.666 2.00002ZM3 6.00002C3.26522 6.00002 3.51957 5.89466 3.70711 5.70712C3.89464 5.51959 4 5.26523 4 5.00002C4 4.7348 3.89464 4.48045 3.70711 4.29291C3.51957 4.10538 3.26522 4.00002 3 4.00002C2.73478 4.00002 2.48043 4.10538 2.29289 4.29291C2.10536 4.48045 2 4.7348 2 5.00002C2 5.26523 2.10536 5.51959 2.29289 5.70712C2.48043 5.89466 2.73478 6.00002 3 6.00002ZM18 22C20.6522 22 23.1957 20.9465 25.0711 19.0711C26.9464 17.1957 28 14.6522 28 12C28 9.34785 26.9464 6.80431 25.0711 4.92895C23.1957 3.05359 20.6522 2.00002 18 2.00002C15.3478 2.00002 12.8043 3.05359 10.9289 4.92895C9.05357 6.80431 8 9.34785 8 12C8 14.6522 9.05357 17.1957 10.9289 19.0711C12.8043 20.9465 15.3478 22 18 22Z" fill="black"/>
<path d="M4 2C4 1.46957 4.21071 0.960859 4.58579 0.585786C4.96086 0.210714 5.46957 0 6 0H8C8.53043 0 9.03914 0.210714 9.41421 0.585786C9.78929 0.960859 10 1.46957 10 2C10 2.53043 9.78929 3.03914 9.41421 3.41421C9.03914 3.78929 8.53043 4 8 4H6C5.46957 4 4.96086 3.78929 4.58579 3.41421C4.21071 3.03914 4 2.53043 4 2Z" fill="black"/>
</svg>
