<svg width="32" height="22" viewBox="0 0 32 22" fill="none" xmlns="http://www.w3.org/2000/svg">
<path fill-rule="evenodd" clip-rule="evenodd" d="M8.812 2.684C10.811 0.96027 13.3605 0.00827703 16 0C21.38 0 25.846 4 26.332 9.158C29.516 9.608 32 12.274 32 15.546C32 19.138 29.004 22 25.374 22H7.562C3.416 22 0 18.732 0 14.636C0 11.11 2.532 8.19 5.884 7.45C6.17 5.724 7.28 4.004 8.812 2.684ZM10.118 4.198C8.604 5.504 7.812 7.078 7.812 8.31V9.206L6.922 9.304C4.128 9.61 2 11.904 2 14.636C2 17.57 4.46 20 7.562 20H25.374C27.96 20 30 17.976 30 15.546C30 13.114 27.96 11.09 25.374 11.09H24.374V10.09C24.376 5.65 20.656 2 16 2C13.8398 2.00863 11.7537 2.78887 10.118 4.2V4.198Z" fill="black"/>
</svg>
