<svg width="32" height="24" viewBox="0 0 32 24" fill="none" xmlns="http://www.w3.org/2000/svg">
<path fill-rule="evenodd" clip-rule="evenodd" d="M22.2379 1.386C24.0459 1.766 25.7379 2.376 26.7079 3.346C27.5219 4.162 28.2659 5.446 28.8959 6.89C29.5359 8.356 30.0939 10.072 30.5059 11.822C30.9179 13.572 31.1859 15.382 31.2339 17.034C31.2819 18.664 31.1159 20.238 30.5779 21.454C30.3326 21.9999 29.9211 22.4544 29.4021 22.7525C28.883 23.0506 28.2831 23.1771 27.6879 23.114C26.4159 22.98 25.4579 22.326 24.6619 21.568C24.1434 21.0529 23.6502 20.5129 23.1839 19.95C22.9319 19.656 22.6839 19.368 22.4479 19.106C20.9919 17.498 19.2539 16.052 15.9999 16.052C12.7459 16.052 11.0079 17.498 9.55194 19.106C9.31394 19.368 9.06794 19.656 8.81594 19.95C8.32994 20.516 7.82794 21.102 7.33794 21.57C6.54194 22.326 5.58394 22.98 4.31194 23.114C3.71676 23.1771 3.11684 23.0506 2.59784 22.7525C2.07884 22.4544 1.66729 21.9999 1.42194 21.454C0.881944 20.238 0.717944 18.664 0.763944 17.034C0.811944 15.382 1.08394 13.574 1.49394 11.822C1.90594 10.072 2.46594 8.356 3.10394 6.89C3.73394 5.446 4.47794 4.162 5.29194 3.346C6.26394 2.376 7.95394 1.766 9.76194 1.386C11.6259 0.994002 13.8219 0.802002 15.9999 0.802002C18.1779 0.802002 20.3739 0.994002 22.2379 1.386ZM10.1739 3.344C8.41994 3.714 7.23594 4.23 6.70794 4.76C6.15594 5.312 5.53394 6.326 4.93794 7.69C4.30567 9.17318 3.80507 10.7091 3.44194 12.28C3.05834 13.8578 2.83124 15.4696 2.76394 17.092C2.71994 18.602 2.88794 19.828 3.24994 20.644C3.32408 20.8029 3.4461 20.9347 3.59889 21.0208C3.75169 21.1068 3.9276 21.1429 4.10194 21.124C4.75594 21.056 5.32194 20.726 5.95994 20.12C6.38394 19.716 6.75994 19.274 7.18994 18.772C7.45594 18.46 7.74194 18.126 8.06994 17.762C9.72194 15.94 11.9559 14.052 15.9999 14.052C20.0439 14.052 22.2779 15.938 23.9299 17.762C24.2579 18.126 24.5439 18.462 24.8099 18.772C25.2379 19.272 25.6159 19.716 26.0399 20.12C26.6759 20.726 27.2419 21.056 27.8979 21.126C28.0725 21.1448 28.2486 21.1084 28.4014 21.0219C28.5542 20.9355 28.6761 20.8033 28.7499 20.644C29.1099 19.828 29.2799 18.604 29.2359 17.092C29.1686 15.4696 28.9415 13.8578 28.5579 12.28C28.1948 10.7091 27.6942 9.1732 27.0619 7.69C26.4659 6.326 25.8419 5.31 25.2919 4.76C24.7639 4.23 23.5799 3.714 21.8259 3.344C20.1259 2.986 18.0719 2.804 15.9999 2.804C13.9279 2.804 11.8739 2.986 10.1739 3.344Z" fill="black"/>
<path d="M23 8.052C23 8.31722 22.8946 8.57157 22.7071 8.75911C22.5196 8.94665 22.2652 9.052 22 9.052C21.7348 9.052 21.4804 8.94665 21.2929 8.75911C21.1054 8.57157 21 8.31722 21 8.052C21 7.78679 21.1054 7.53243 21.2929 7.3449C21.4804 7.15736 21.7348 7.052 22 7.052C22.2652 7.052 22.5196 7.15736 22.7071 7.3449C22.8946 7.53243 23 7.78679 23 8.052ZM21 10.052C21 10.3172 20.8946 10.5716 20.7071 10.7591C20.5196 10.9466 20.2652 11.052 20 11.052C19.7348 11.052 19.4804 10.9466 19.2929 10.7591C19.1054 10.5716 19 10.3172 19 10.052C19 9.78679 19.1054 9.53243 19.2929 9.3449C19.4804 9.15736 19.7348 9.052 20 9.052C20.2652 9.052 20.5196 9.15736 20.7071 9.3449C20.8946 9.53243 21 9.78679 21 10.052ZM25 10.052C25 10.3172 24.8946 10.5716 24.7071 10.7591C24.5196 10.9466 24.2652 11.052 24 11.052C23.7348 11.052 23.4804 10.9466 23.2929 10.7591C23.1054 10.5716 23 10.3172 23 10.052C23 9.78679 23.1054 9.53243 23.2929 9.3449C23.4804 9.15736 23.7348 9.052 24 9.052C24.2652 9.052 24.5196 9.15736 24.7071 9.3449C24.8946 9.53243 25 9.78679 25 10.052ZM23 12.052C23 12.3172 22.8946 12.5716 22.7071 12.7591C22.5196 12.9466 22.2652 13.052 22 13.052C21.7348 13.052 21.4804 12.9466 21.2929 12.7591C21.1054 12.5716 21 12.3172 21 12.052C21 11.7868 21.1054 11.5324 21.2929 11.3449C21.4804 11.1574 21.7348 11.052 22 11.052C22.2652 11.052 22.5196 11.1574 22.7071 11.3449C22.8946 11.5324 23 11.7868 23 12.052ZM9 7.052H11V13.052H9V7.052Z" fill="black"/>
<path d="M6.99996 9.052H13V11.052H6.99996V9.052ZM6.10196 2.52C6.0678 2.39301 6.05902 2.26053 6.07612 2.13014C6.09323 1.99975 6.13589 1.87402 6.20165 1.76014C6.26742 1.64626 6.355 1.54647 6.45938 1.46648C6.56376 1.3865 6.68289 1.32788 6.80996 1.294L10.674 0.257998C10.9285 0.194561 11.1978 0.233677 11.4237 0.366916C11.6497 0.500154 11.8142 0.716845 11.8819 0.97028C11.9496 1.22371 11.915 1.4936 11.7856 1.72176C11.6561 1.94992 11.4422 2.11808 11.19 2.19L7.32596 3.226C7.06976 3.29438 6.79689 3.25822 6.56735 3.12545C6.33782 2.99268 6.17041 2.77418 6.10196 2.518V2.52ZM26.054 2.52C26.0882 2.39314 26.097 2.26079 26.08 2.1305C26.0631 2.00022 26.0206 1.87456 25.955 1.7607C25.8894 1.64685 25.8021 1.54703 25.6979 1.46695C25.5938 1.38687 25.4748 1.3281 25.348 1.294L21.484 0.257998C21.2278 0.189307 20.9548 0.225204 20.725 0.357792C20.4953 0.490381 20.3277 0.708799 20.259 0.964998C20.1903 1.2212 20.2262 1.49419 20.3588 1.72392C20.4913 1.95365 20.7098 2.12131 20.966 2.19L24.83 3.226C25.0862 3.29438 25.359 3.25822 25.5886 3.12545C25.8181 2.99268 25.9855 2.77418 26.054 2.518V2.52Z" fill="black"/>
</svg>
