<svg width="714" height="800" viewBox="0 0 714 800" fill="none" xmlns="http://www.w3.org/2000/svg">
<path fill-rule="evenodd" clip-rule="evenodd" d="M365.602 3.63179C437.292 9.54974 446.659 30.8921 504.5 73.6513C587.766 92.8274 573.969 150.423 606.5 207C638.997 263.518 665.406 230.049 671 295C676.993 364.586 734.043 506.011 700 567C665.866 628.153 617.826 725.047 554.204 754.339C494.645 781.761 431.166 797.877 365.602 796.963C300.615 796.057 289.106 717.527 230 690.5C166.299 661.372 95.3811 634.781 58.6705 575.134C21.7463 515.141 -17.4325 498.165 -17.7989 427.723C-18.167 356.952 -25.3906 283.613 6.53268 220.448C39.1419 155.925 99.253 111.024 161.146 73.6513C223.881 35.7703 292.563 -2.39755 365.602 3.63179Z" stroke="#FEE6DA" stroke-width="5"/>
</svg>
